<?xml version="1.0" standalone="no"?><!DOCTYPE svg PUBLIC "-//W3C//DTD SVG 1.1//EN" "http://www.w3.org/Graphics/SVG/1.1/DTD/svg11.dtd"><svg t="1592622597601" class="icon" viewBox="0 0 1024 1024" version="1.1" xmlns="http://www.w3.org/2000/svg" p-id="639" xmlns:xlink="http://www.w3.org/1999/xlink" width="200" height="200"><defs><style type="text/css"></style></defs><path d="M524.79999999 93.86633333c234.667 0 426.667 192 426.66700001 426.667 0 17.06699999 0 38.4-4.267 55.467-4.267 12.79999999-12.8 17.066-25.6 17.066-12.8-4.266-17.067-12.79999999-17.06700001-25.6 4.267-12.79999999 4.267-29.866 4.26700001-46.933 0-213.333-170.667-384-384-384s-384 170.667-384 384 170.667 384 384 384c25.6 0 46.93300001-4.267 72.53299999-8.533 12.8 0 21.334 4.266 25.60000001 17.066 0 12.8-4.266 21.334-17.066 25.6-25.6 4.267-51.2 8.534-81.067 8.534-234.667 0-426.667-192-426.667-426.66700001s192-426.667 426.66699999-426.66699999z" p-id="640"></path><path d="M904.533 627.20033333l8.534 0c8.533 4.26599999 17.066 17.066 12.8 29.866-42.667 119.467-128 213.334-238.934 256-12.79999999 4.267-21.333 0-25.6-12.79999998-4.266-12.8 0-21.333 12.8-25.60000002 93.867-42.66600001 174.934-128 209.06700001-234.666 4.267-8.53400001 12.8-12.8 21.33299999-12.8zM418.133 486.40033333c4.26700001 0 12.8 0 17.06699999 4.266l128.00000001 128c8.53299999 8.534 8.53299999 21.334 0 29.867s-21.333 8.533-29.867 0l-128-128.00000001c-8.533-8.533-8.533-21.333 0-29.86699999 0-4.266 8.534-4.266 12.8-4.266z" p-id="641"></path><path d="M550.4 354.13333333c4.26700001 0 12.8 0 17.067 4.267 8.533 8.533 8.533 21.333 0 29.866l-128 128.00000002c-8.534 8.534-21.334 8.534-29.867-2e-8s-8.533-21.333 0-29.866l128-128c0-4.26700001 8.533-4.267 12.8-4.267z" p-id="642"></path></svg>