<?xml version="1.0" standalone="no"?><!DOCTYPE svg PUBLIC "-//W3C//DTD SVG 1.1//EN" "http://www.w3.org/Graphics/SVG/1.1/DTD/svg11.dtd"><svg t="1593522779095" class="icon" viewBox="0 0 1024 1024" version="1.1" xmlns="http://www.w3.org/2000/svg" p-id="9642" xmlns:xlink="http://www.w3.org/1999/xlink" width="200" height="200"><defs><style type="text/css"></style></defs><path d="M113.777778 151.694222C113.777778 130.844444 130.844444 113.777778 151.694222 113.777778H227.555556c20.849778 0 37.916444 17.066667 37.916444 37.916444 0 20.878222-17.066667 37.944889-37.916444 37.944889H189.639111V398.222222c0 94.805333 75.832889 170.666667 170.666667 170.666667 94.805333 0 170.666667-75.861333 170.666666-170.666667V189.639111h-37.944888c-20.849778 0-37.916444-17.066667-37.916445-37.944889C455.111111 130.844444 472.177778 113.777778 493.027556 113.777778H568.888889c20.849778 0 37.916444 17.066667 37.916444 37.916444V398.222222c0 123.249778-91.022222 225.649778-208.583111 242.716445v22.755555c0 94.833778 75.861333 170.666667 170.666667 170.666667s170.666667-75.832889 170.666667-170.666667v-24.632889h75.861333v24.632889A246.044444 246.044444 0 0 1 568.888889 910.222222a246.044444 246.044444 0 0 1-246.528-246.528v-22.755555C204.8 623.872 113.777778 521.472 113.777778 398.222222V151.694222z" fill="#333333" p-id="9643"></path><path d="M777.386667 384c74.951111 0 132.266667 57.315556 132.266666 132.266667 0 74.951111-57.315556 132.266667-132.266666 132.266666-74.951111 0-132.266667-57.315556-132.266667-132.266666 0-74.951111 57.315556-132.266667 132.266667-132.266667z m0.085333 76.8c-32.227556 0-56.888889 24.661333-56.888889 56.888889s24.661333 56.888889 56.888889 56.888889c32.256 0 56.888889-24.661333 56.888889-56.888889s-24.632889-56.888889-56.888889-56.888889z" fill="#26A51C" p-id="9644"></path></svg>