<?xml version="1.0" standalone="no"?><!DOCTYPE svg PUBLIC "-//W3C//DTD SVG 1.1//EN" "http://www.w3.org/Graphics/SVG/1.1/DTD/svg11.dtd"><svg t="1593517701211" class="icon" viewBox="0 0 1024 1024" version="1.1" xmlns="http://www.w3.org/2000/svg" p-id="2016" xmlns:xlink="http://www.w3.org/1999/xlink" width="200" height="200"><defs><style type="text/css"></style></defs><path d="M679.553448 219.295148a47.819044 47.819044 0 0 0-37.358629-19.052901H333.238964A53.049252 53.049252 0 0 0 289.155783 224.151769c-37.358628 56.785115-119.54761 226.019701-113.943817 615.670194a12.701934 12.701934 0 0 0 7.845312 11.954761 164.004378 164.004378 0 0 0 74.717257 9.339657 24.283108 24.283108 0 0 0 23.909522-22.788763c2.98869-50.807734 10.834002-184.551623 15.317037-224.15177a2133.924845 2133.924845 0 0 0 378.442905 0h8.592484c9.713243 48.19263 19.0529 177.453484 22.415177 227.14046a23.535936 23.535936 0 0 0 22.788763 22.415177 232.744254 232.744254 0 0 0 71.728566-8.218898 27.271799 27.271799 0 0 0 20.920832-28.392558c-25.403867-418.790223-108.713608-560.379424-142.336373-607.824881z" fill="#FFFFFF" p-id="2017"></path><path d="M738.58008 905.573148h-12.328347a65.751186 65.751186 0 0 1-61.641737-60.894564c-5.230208-78.826706-10.834002-144.204305-16.06421-186.793141a2110.015323 2110.015323 0 0 1-314.933236 0c-4.483035 58.27946-9.713243 149.434513-11.581175 183.057279a66.124772 66.124772 0 0 1-59.400218 61.26815 200.242247 200.242247 0 0 1-96.011675-12.701934 53.422838 53.422838 0 0 1-34.369938-48.566216C129.260854 452.412988 206.9668 273.838745 254.412258 201.736592a93.022984 93.022984 0 0 1 78.45312-42.215249h308.955855a88.166363 88.166363 0 0 1 70.981394 37.358628c79.947464 112.075885 131.502371 330.250274 149.434513 629.866472A68.739876 68.739876 0 0 1 810.682233 896.607078a292.518059 292.518059 0 0 1-72.102153 8.96607z m-63.883254-332.118205h8.592484a40.720905 40.720905 0 0 1 39.973733 32.875593c9.339657 44.830354 17.558555 149.434513 22.04159 217.05363a270.476468 270.476468 0 0 0 34.369938-4.483035c-21.668004-351.171105-84.4305-506.956585-133.743889-576.070047a4.856622 4.856622 0 0 0-4.109449-2.241518H332.865378a11.954761 11.954761 0 0 0-9.713244 5.603794c-33.249179 50.434148-109.087194 206.593214-107.592849 572.334185a144.204305 144.204305 0 0 0 25.403867 0c3.735863-60.520978 10.460416-174.091208 14.569865-211.449836a41.094491 41.094491 0 0 1 44.456768-37.358628 2112.630427 2112.630427 0 0 0 370.224006 0z" fill="#FFFFFF" p-id="2018"></path><path d="M687.39876 532.734039s-15.690624-63.136082-115.064575-37.358629c-52.30208 13.822692-70.234221 60.520978-98.253193 79.200292S347.061656 572.334185 319.042685 597.738052s-21.668004 25.777453-21.668004 25.777453 329.129515 23.909522 387.782561-2.241517c1.867931-20.547246 2.241518-88.539949 2.241518-88.539949zM593.255016 212.570595H379.190077l68.366289 63.136081a67.619117 67.619117 0 0 0 44.830354 15.690624c8.218898-2.241518-4.109449-18.305728-17.184969-26.524626A186.793141 186.793141 0 0 1 431.11857 230.876323a369.476833 369.476833 0 0 1 144.577891 4.856621c4.856622-7.471726 17.558555-23.16235 17.558555-23.162349z" fill="#75BC43" opacity=".35" p-id="2019"></path><path d="M548.051076 270.476468H543.194455A4.856622 4.856622 0 0 1 543.194455 261.510398l49.313389-52.675666a5.603794 5.603794 0 0 1 7.471726 0 5.977381 5.977381 0 0 1 0 5.603794l-49.31339 52.30208a5.230208 5.230208 0 0 1-2.615104 3.735862zM492.013134 296.627508a74.717256 74.717256 0 0 1-51.554907-20.173659L375.454214 216.680044a5.230208 5.230208 0 0 1 0-7.845312 5.603794 5.603794 0 0 1 7.471725 0l65.004014 59.773805a65.377599 65.377599 0 0 0 85.924845 2.98869 5.230208 5.230208 0 1 1 6.724553 8.218899 74.717256 74.717256 0 0 1-48.566217 16.811382z" fill="#231815" p-id="2020"></path><path d="M727.372492 879.795695h-10.08683a29.513316 29.513316 0 0 1-28.018971-27.271799c-3.362277-51.928493-12.701934-178.200657-22.041591-224.151769a5.603794 5.603794 0 0 1 3.735863-6.350967 5.603794 5.603794 0 0 1 5.977381 4.109449c10.08683 48.19263 19.0529 174.83838 22.788763 227.14046a18.305728 18.305728 0 0 0 17.558555 17.184969 231.997081 231.997081 0 0 0 69.860635-7.845312 21.668004 21.668004 0 0 0 16.811383-22.788763c-16.811383-289.529369-65.377599-497.990514-140.094856-602.96826a40.720905 40.720905 0 0 0-33.249179-17.184969H323.899307a48.19263 48.19263 0 0 0-37.358628 21.294418c-37.358628 54.170011-117.306093 221.910252-112.075885 610.439986a7.471726 7.471726 0 0 0 2.615104 7.845311 158.77417 158.77417 0 0 0 74.717256 8.966071 18.679314 18.679314 0 0 0 17.184969-17.558555c2.98869-54.170011 10.834002-184.178037 14.943452-224.151769a5.603794 5.603794 0 0 1 5.97738-4.483036 5.977381 5.977381 0 0 1 4.856622 5.603794c-4.483035 39.973732-11.954761 169.608172-15.317038 224.15177a28.766144 28.766144 0 0 1-26.524626 27.271798 161.76286 161.76286 0 0 1-78.826705-9.713243 17.558555 17.558555 0 0 1-10.834003-16.437796c0-130.381613 6.350967-451.292229 114.317403-616.04378a57.905874 57.905874 0 0 1 48.19263-26.15104h307.461511a51.554907 51.554907 0 0 1 41.841663 21.294418c74.717256 106.845677 125.151405 317.174754 141.962788 608.572054a32.875593 32.875593 0 0 1-24.656695 33.996352 254.412258 254.412258 0 0 1-65.004013 5.230208z" fill="#231815" p-id="2021"></path><path d="M593.255016 635.09668a5.603794 5.603794 0 0 1-4.109449-6.724553 7.471726 7.471726 0 0 1 4.109449-4.109449 628.372127 628.372127 0 0 0 87.792777-7.845312c2.615104-23.535936 0-92.275812 0-134.117475V448.303539A186.793141 186.793141 0 0 0 655.270339 346.68807a4.856622 4.856622 0 0 1 0-7.098139 5.603794 5.603794 0 0 1 7.471726 0c20.547246 14.569865 31.007661 82.562568 31.007661 108.340022v37.358628c2.241518 46.698285 2.241518 93.770157 0 140.468442a4.856622 4.856622 0 0 1-4.483035 4.109449c-28.392557 3.735863-59.400219 6.724553-92.649398 8.592485zM497.616928 638.832543a2241.517694 2241.517694 0 0 1-224.151769-10.834002 4.856622 4.856622 0 0 1-4.856622-4.856622V448.303539a312.691718 312.691718 0 0 1 20.173659-106.098504 5.230208 5.230208 0 0 1 6.350967-5.977381 5.230208 5.230208 0 0 1 4.483035 6.350967 5.230208 5.230208 0 0 1 0 2.241518A298.869026 298.869026 0 0 0 279.442539 448.303539v171.476103a2353.593579 2353.593579 0 0 0 290.276542 8.966071 6.350967 6.350967 0 0 1 5.603794 5.230208 5.603794 5.603794 0 0 1-5.230208 5.603794z" fill="#231815" p-id="2022"></path></svg>